<?xml version="1.0" encoding="UTF-8" standalone="no"?>
<!--
  ~ BioViz, a visualization tool for digital microfluidic biochips (DMFB).
  ~
  ~ Copyright (c) 2017 Oliver Keszocze, Jannis Stoppe, Maximilian Luenert
  ~
  ~ This file is part of BioViz.
  ~
  ~ BioViz is free software: you can redistribute it and/or modify it under the terms of the
  ~ GNU General Public License as published by the Free Software Foundation, either version 2 of the
  ~ License, or (at your option) any later version.
  ~
  ~ BioViz is distributed in the hope that it will be useful, but WITHOUT ANY WARRANTY;
  ~ without even the implied warranty of MERCHANTABILITY or FITNESS FOR A PARTICULAR PURPOSE.
  ~
  ~ See the GNU General Public License for more details. You should have received a copy of the GNU
  ~ General Public License along with BioViz. If not, see <http://www.gnu.org/licenses/>.
  -->

<svg
   xmlns:dc="http://purl.org/dc/elements/1.1/"
   xmlns:cc="http://creativecommons.org/ns#"
   xmlns:rdf="http://www.w3.org/1999/02/22-rdf-syntax-ns#"
   xmlns:svg="http://www.w3.org/2000/svg"
   xmlns="http://www.w3.org/2000/svg"
   width="256"
   height="256"
   id="svg2"
   version="1.1">
  <defs
     id="defs4" />
  <metadata
     id="metadata7">
    <rdf:RDF>
      <cc:Work
         rdf:about="">
        <dc:format>image/svg+xml</dc:format>
        <dc:type
           rdf:resource="http://purl.org/dc/dcmitype/StillImage" />
        <dc:title></dc:title>
      </cc:Work>
    </rdf:RDF>
  </metadata>
  <g
     id="layer1"
     transform="translate(0,-796.36218)">
    <rect
       style="fill:#808080;stroke:#4d4d4d;stroke-width:16;stroke-linecap:round;stroke-linejoin:round;stroke-miterlimit:4;stroke-opacity:1;stroke-dasharray:none;stroke-dashoffset:0;fill-opacity:1"
       id="rect2987"
       width="224"
       height="224"
       x="16"
       y="16"
       transform="translate(0,796.36218)"
       rx="32"
       ry="32" />
    <path
       id="path4643"
       d="m 126.0431,1013.0297 c 30.23239,-0.7114 68.5778,-33.4138 57.65802,-63.91558 -10.91979,-30.50179 14.35671,-79.54594 -17.87846,-105.92983 -0.89393,66.15027 -21.00718,46.93093 -34.41603,80.45303 -25.47679,-25.92375 6.25746,-23.24198 -28.60551,-53.18839 9.38617,27.26464 -26.370733,53.1884 -25.923772,85.36961 0.446961,32.18121 18.933354,57.92256 49.165752,57.21116 z"
       style="fill:#b3b3b3;fill-rule:evenodd;stroke:none;stroke-width:1px;stroke-linecap:butt;stroke-linejoin:miter;stroke-opacity:1" />
    <path
       id="path4645"
       d="m 136.3232,824.85886 c 0.51496,16.93573 -12.2134,14.35106 -5.36354,40.22652 7.0211,-21.1796 32.50511,-12.18359 5.36354,-40.22652 z"
       style="fill:#b3b3b3;fill-rule:evenodd;stroke:none;stroke-width:1px;stroke-linecap:butt;stroke-linejoin:miter;stroke-opacity:1" />
    <path
       id="path4647"
       d="m 126.93701,996.93898 c 7.37486,0 35.75691,-8.49226 33.07514,-27.26464 -2.68177,-18.77238 -11.4164,-22.26442 -2.2348,-58.55194 -19.42393,5.72684 -18.17767,36.5814 -29.49945,45.59006 4.32188,-21.38471 -17.87081,7.98843 -13.8558,-25.4768 -14.757369,22.40494 1.34088,28.60552 -5.36354,46.48398 -6.70442,17.87846 10.50358,19.21934 17.87845,19.21934 z"
       style="fill:#ffffff;fill-rule:evenodd;stroke:none;stroke-width:1px;stroke-linecap:butt;stroke-linejoin:miter;stroke-opacity:1" />
  </g>
</svg>
